<?xml version="1.0" encoding="utf-8"?>
<!-- Generator: Adobe Illustrator 25.2.2, SVG Export Plug-In . SVG Version: 6.00 Build 0)  -->
<svg version="1.1" id="Layer_1" xmlns="http://www.w3.org/2000/svg" xmlns:xlink="http://www.w3.org/1999/xlink" x="0px" y="0px"
	 viewBox="0 0 1547.021 598.492" style="enable-background:new 0 0 1547.021 598.492;" xml:space="preserve">
<style type="text/css">
	.st0{fill:#EAEAEA;}
</style>
<g id="space-cadet-protectino-zone">
	<path class="st0" d="M398.909,231.664l-72.31-113.21c-1.811-2.836-4.903-4.581-8.344-4.67l-13.207-0.004l-112.137,0.002
		l-10.847-0.006c-0.293-0.013-0.6-0.009-1.04,0.007c-1.672,0.127-3.302,0.672-4.716,1.574c-1.719,1.1-3.047,2.662-3.808,4.443
		l-57.027,123.086c-0.104,0.203-0.201,0.417-0.302,0.646c-1.337,3.092-1.053,6.631,0.758,9.468l72.31,113.21
		c1.816,2.843,4.911,4.592,8.292,4.679c0.242,0.004,0.479,0.007,0.587,0l12.689-0.002l112.119,0.011l10.73-0.004
		c0.142,0.007,0.285,0.011,0.435,0.011c0.211,0,0.439-0.007,0.702-0.018c1.669-0.122,3.299-0.664,4.715-1.568
		c1.487-0.95,2.682-2.247,3.492-3.782l57.359-123.748c0.1-0.192,0.193-0.399,0.308-0.657
		C401.005,238.041,400.722,234.5,398.909,231.664z M189.578,234.441c-8.675,0.297-17.317,0.596-25.961,0.897
		c-7.651,0.266-15.306,0.533-22.989,0.795c5.162-11.131,10.312-22.234,15.471-33.342l11.606-25.025
		c3.539-7.614,7.077-15.247,10.629-22.905l4.711-10.158l28.823,45.122C198.857,201.671,191.369,216.659,189.578,234.441z
		 M226.581,253.59l7.714-0.255c5.634-0.183,11.269-0.365,16.9-0.609c0.959-0.057,1.07,0.015,1.532,0.749
		c5.257,8.361,10.58,16.688,15.903,25.012l6.092,9.538c-11.949,4.756-25.67,3.869-38.124-2.566
		c-12.716-6.57-21.922-18.119-25.124-31.314C216.517,253.955,221.547,253.771,226.581,253.59z M251.4,231.646
		c-0.095,0.19-0.274,0.548-0.396,0.731c-0.029,0.004-0.064,0.006-0.105,0.007c-10.94,0.299-22.053,0.688-32.801,1.065l-7.91,0.275
		c1.755-13.636,9.145-25.49,20.59-32.849c7.406-4.764,15.855-7.184,24.495-7.184c4.727,0,9.512,0.725,14.213,2.188L251.4,231.646z
		 M286.18,268.816c-5.515-8.647-11.028-17.293-16.598-25.911l-0.001-0.002c-0.596-0.921-0.534-1.042-0.189-1.714
		c4.233-8.216,8.4-16.477,12.567-24.739l5.196-10.289c0.101-0.201,0.202-0.402,0.305-0.601c11.035,8.968,17.49,22.293,17.832,37.045
		c0.316,13.631-4.779,26.327-13.753,34.609L286.18,268.816z M278.783,177.478c-16.986-5.889-33.735-5.396-49.853,1.465
		l-28.835-45.146l100.797-0.039C293.513,148.356,286.185,162.848,278.783,177.478z M172.496,255.474l18.205-0.633
		c1.935,8.861,5.145,16.715,9.775,23.944c4.523,7.079,10.277,13.258,17.546,18.83c-7.316,14.485-14.611,28.922-22.032,43.567
		l-54.066-84.645C152.124,256.178,162.297,255.826,172.496,255.474z M229.238,320.717l6.827-13.492
		c16.879,5.858,33.615,5.365,49.82-1.469l28.822,45.124c-11.717,0.007-23.377,0.007-35.016,0.007l-65.724,0.024
		C219.046,340.858,224.13,330.812,229.238,320.717z M325.223,250.247c14.119-0.493,28.203-0.978,42.347-1.463l6.647-0.229
		c-7.108,15.33-14.194,30.589-21.295,45.884l-21.162,45.607l-28.824-45.124C315.955,283.067,323.441,268.062,325.223,250.247z
		 M324.149,229.831c-3.878-17.466-13.06-31.824-27.33-42.738l22.037-43.596l54.073,84.656
		C356.585,228.718,340.466,229.272,324.149,229.831z"/>
	<g>
		<path class="st0" d="M491.538,137.513h-22.6v-23.591h22.6V137.513z M491.141,268.554h-21.807V154.762h21.807V268.554z"/>
		<path class="st0" d="M531.777,268.554h-22.006V154.762h21.014v15.264c5.551-9.12,16.653-18.238,32.513-18.238
			c15.859,0,27.755,7.732,33.504,21.411c4.559-9.714,16.453-21.411,34.89-21.411c22.599,0,37.469,16.058,37.469,42.225v74.541
			h-21.808v-67.998c0-22.402-9.515-29.54-23.194-29.54c-11.697,0-23.593,9.517-23.593,27.755v69.783h-21.806v-67.998
			c0-22.402-10.508-29.54-23.593-29.54c-11.498,0-23.392,9.317-23.392,27.557V268.554z"/>
		<path class="st0" d="M708.998,268.554h-22.005V154.762h21.014v15.264c5.55-9.12,16.652-18.238,32.511-18.238
			c15.861,0,27.755,7.732,33.504,21.411c4.559-9.714,16.455-21.411,34.892-21.411c22.599,0,37.467,16.058,37.467,42.225v74.541
			h-21.806v-67.998c0-22.402-9.517-29.54-23.196-29.54c-11.697,0-23.591,9.517-23.591,27.755v69.783h-21.808v-67.998
			c0-22.402-10.506-29.54-23.591-29.54c-11.499,0-23.393,9.317-23.393,27.557V268.554z"/>
		<path class="st0" d="M925.669,274.501c-39.651,0-65.818-27.555-65.818-62.844c0-35.09,25.573-62.645,61.257-62.645
			c34.099,0,60.665,26.763,60.665,61.456v5.155h-98.728c1.587,23.788,17.644,39.846,42.624,39.846
			c17.841,0,31.322-6.938,41.037-16.652l13.085,14.076C967.894,264.787,950.648,274.501,925.669,274.501z M884.235,198.574h73.35
			c-4.162-18.437-18.04-30.728-36.478-30.728C902.276,167.846,888.597,179.938,884.235,198.574z"/>
		<path class="st0" d="M1016.851,268.554h-21.806V154.762h21.014v23.194c4.559-8.921,16.256-23.194,32.116-23.194h3.765v24.781
			c-0.991-0.397-3.37-0.794-4.756-0.794c-18.637,0-30.333,16.058-30.333,27.358V268.554z"/>
		<path class="st0" d="M1122.91,156.347v20.023c-8.129-4.559-16.455-6.741-23.196-6.741c-10.508,0-16.85,4.362-16.85,11.499
			c0,5.153,5.351,9.714,18.635,18.04c26.961,17.247,33.899,27.755,33.899,40.64c0,19.428-15.661,31.919-40.243,32.116
			c-10.111,0-23.79-3.767-33.107-8.129v-20.023c11.497,6.146,23.194,9.517,30.529,9.517c13.679-0.199,19.825-6.344,19.825-13.481
			c0-4.362-2.577-10.111-23.591-22.996c-23.196-15.067-28.945-22.599-28.945-37.072c0-13.282,11.302-28.746,38.263-28.548
			C1107.643,151.192,1116.169,153.374,1122.91,156.347z"/>
		<path class="st0" d="M1171.471,137.513h-22.599v-23.591h22.599V137.513z M1171.076,268.554h-21.808V154.762h21.808V268.554z"/>
		<path class="st0" d="M1255.324,268.554h-25.772l-49.163-113.793h24.384l37.864,91.391l39.054-91.391h22.799L1255.324,268.554z"/>
		<path class="st0" d="M1390.861,267.917c-36.763,14.853-71.348-0.893-84.567-33.612c-13.145-32.535,0.244-67.663,33.329-81.031
			c31.616-12.774,66.273,2.089,79.269,34.256l1.931,4.78l-91.539,36.984c10.383,21.461,31.286,30.335,54.447,20.977
			c16.542-6.683,26.443-18.167,31.81-30.812l17.405,8.149C1426.373,243.092,1414.021,258.559,1390.861,267.917z M1324.002,213.04
			l68.009-27.478c-10.766-15.536-28.238-21.733-45.333-14.826C1329.218,177.791,1321.064,194.126,1324.002,213.04z"/>
		<path class="st0" d="M491.538,353.687h-22.6v-23.591h22.6V353.687z M491.141,484.729h-21.807V370.936h21.807V484.729z"/>
		<path class="st0" d="M531.579,484.729h-21.808V370.936h21.014v13.282c7.336-8.524,20.619-16.256,37.271-16.256
			c24.779,0,40.837,16.058,40.837,42.225v74.541h-21.806v-67.998c0-22.204-12.887-29.54-27.358-29.54
			c-12.292,0-28.152,9.317-28.152,27.557V484.729z"/>
		<path class="st0" d="M686.401,372.521v20.023c-8.129-4.559-16.455-6.741-23.196-6.741c-10.508,0-16.85,4.362-16.85,11.499
			c0,5.153,5.351,9.714,18.635,18.04c26.961,17.247,33.899,27.755,33.899,40.64c0,19.428-15.661,31.919-40.243,32.116
			c-10.111,0-23.79-3.767-33.107-8.129v-20.023c11.497,6.146,23.194,9.517,30.529,9.517c13.679-0.199,19.825-6.344,19.825-13.481
			c0-4.362-2.577-10.111-23.591-22.996c-23.196-15.067-28.945-22.599-28.945-37.072c0-13.282,11.302-28.746,38.263-28.548
			C671.134,367.366,679.66,369.548,686.401,372.521z"/>
		<path class="st0" d="M734.962,353.687h-22.599v-23.591h22.599V353.687z M734.567,484.729h-21.808V370.936h21.808V484.729z"/>
		<path class="st0" d="M855.292,467.085c-10.903,13.48-27.755,22.005-47.58,22.005c-33.502,0-58.878-27.557-58.878-61.059
			c0-33.305,25.375-61.456,58.878-61.456c19.032,0,35.686,8.326,46.589,21.411v-57.888h21.808v154.632h-20.817V467.085z
			 M813.065,385.804c-23.987,0-41.234,19.428-41.234,41.83c0,22.402,17.247,42.227,41.234,42.227c23.989,0,41.83-19.825,41.83-42.03
			C854.895,405.429,837.054,385.804,813.065,385.804z"/>
		<path class="st0" d="M955.793,490.676c-39.651,0-65.818-27.555-65.818-62.844c0-35.09,25.573-62.645,61.257-62.645
			c34.099,0,60.665,26.763,60.665,61.456v5.155h-98.728c1.587,23.788,17.644,39.846,42.624,39.846
			c17.841,0,31.323-6.938,41.037-16.652l13.085,14.076C998.019,480.962,980.772,490.676,955.793,490.676z M914.36,414.749h73.35
			c-4.164-18.437-18.04-30.728-36.478-30.728C932.4,384.021,918.721,396.112,914.36,414.749z"/>
		<path class="st0" d="M1046.975,484.729h-21.806V370.936h21.014v23.194c4.559-8.921,16.256-23.194,32.116-23.194h3.765v24.781
			c-0.991-0.397-3.37-0.794-4.756-0.794c-18.637,0-30.333,16.058-30.333,27.358V484.729z"/>
		<path class="st0" d="M1156.812,372.521v20.023c-8.129-4.559-16.455-6.741-23.196-6.741c-10.506,0-16.852,4.362-16.852,11.499
			c0,5.153,5.353,9.714,18.637,18.04c26.961,17.247,33.899,27.755,33.899,40.64c0,19.428-15.661,31.919-40.243,32.116
			c-10.111,0-23.79-3.767-33.107-8.129v-20.023c11.497,6.146,23.194,9.517,30.529,9.517c13.679-0.199,19.825-6.344,19.825-13.481
			c0-4.362-2.577-10.111-23.591-22.996c-23.196-15.067-28.945-22.599-28.945-37.072c0-13.282,11.302-28.746,38.263-28.548
			C1141.546,367.366,1150.072,369.548,1156.812,372.521z"/>
	</g>
</g>
</svg>
